<?xml version="1.0" encoding="UTF-8" standalone="no"?>
<!-- Created with Inkscape (http://www.inkscape.org/) -->

<svg
   xmlns:dc="http://purl.org/dc/elements/1.1/"
   xmlns:cc="http://creativecommons.org/ns#"
   xmlns:rdf="http://www.w3.org/1999/02/22-rdf-syntax-ns#"
   xmlns:svg="http://www.w3.org/2000/svg"
   xmlns="http://www.w3.org/2000/svg"
   version="1.1"
   width="382.83618"
   height="423.41"
   id="svg2">
  <defs
     id="defs4" />
  <metadata
     id="metadata7">
    <rdf:RDF>
      <cc:Work
         rdf:about="">
        <dc:format>image/svg+xml</dc:format>
        <dc:type
           rdf:resource="http://purl.org/dc/dcmitype/StillImage" />
        <dc:title></dc:title>
      </cc:Work>
    </rdf:RDF>
  </metadata>
  <g
     transform="translate(-608.93487,-498.49683)"
     id="layer1">
    <g
       id="g3864"
       style="fill:#ffffff;fill-opacity:1;stroke:#ffffff;stroke-opacity:1">
      <path
         d="m 66.933647,301.93365 c -30.396173,36.19078 -14.611171,126.25526 160.627633,126.25526 164.61455,0 176.96776,-94.08149 149.58158,-126.25526 18.07069,26.41508 10.2388,108.5961 -149.58158,108.86729 C 53.151166,411.09688 47.327268,328.37234 66.933647,301.93365 z"
         transform="translate(557.85712,490.21933)"
         id="path3050"
         style="fill:#ffffff;fill-opacity:1;stroke:#ffffff;stroke-width:3;stroke-linecap:butt;stroke-linejoin:round;stroke-miterlimit:4;stroke-opacity:1;stroke-dasharray:none" />
      <path
         d="m 223.87506,382.82486 c 70.13572,0 80.68594,-33.96639 80.68594,-33.96639 0,0 -18.61726,28.41055 -80.68594,28.41055 -62.06868,0 -83.96893,-28.41055 -83.96893,-28.41055 0,0 13.83321,33.96639 83.96893,33.96639 z"
         transform="translate(557.85712,490.21933)"
         id="path3071"
         style="fill:#ffffff;fill-opacity:1;stroke:#ffffff;stroke-width:3;stroke-linecap:butt;stroke-linejoin:round;stroke-miterlimit:4;stroke-opacity:1;stroke-dasharray:none" />
      <path
         d="m 217.75,159.5625 c -1.77268,-0.002 -3.5239,0.0112 -5.25,0.0312 C 105.48172,160.8346 76.530961,191.31077 75,203.15625 71.189112,232.64215 94.593852,363.375 223.125,363.375 c 65.17701,0 103.22489,-34.06053 124.125,-71.25 17.67015,-1.18624 56.01208,-7.92288 71.84375,-43.375 20.89286,-46.78571 6.4375,-45.90625 6.4375,-45.90625 l -56.90625,0 c -3.19616,-13.32748 -30.66588,-42.53982 -145.5,-43.25 -1.80818,-0.0112 -3.60232,-0.029 -5.375,-0.0312 z m 7.0625,1.59375 c 54.89545,0 134.08919,12.45186 133.53125,43.25 -0.19318,10.66333 -10.54871,19.03952 -25.96875,25.46875 1.12448,-1.61681 1.71875,-3.29195 1.71875,-5 0,-16.50045 -41.68605,-30.4375 -105.40625,-30.4375 -63.7202,0 -119.30724,14.74931 -119.09375,30.4375 0.0161,1.18598 0.45306,2.35471 1.21875,3.53125 -14.996323,-6.39394 -24.9375,-14.37493 -24.9375,-24 0,-29.19443 84.04204,-43.25 138.9375,-43.25 z m -12,41.1875 c -51.89106,10.22351 -77.69068,24.37399 -83.875,31.875 0,0 -4.05359,-3.92163 -3.6875,-8.25 0.20152,-2.3826 7.51923,-23.6603 87.5625,-23.625 z m 156.5,17.9375 38.1875,0 c 0,0 4.64286,7.74108 -11.25,33.8125 -10.67293,17.50841 -33.21725,28.73271 -46.90625,34.21875 13.07531,-24.75577 18.75909,-50.42685 19.96875,-68.03125 z M 89.40625,232.4375 c 35.75093,15.75925 57.34457,26.65625 135.09375,26.65625 77.74919,0 100.96153,-14.15916 130.5625,-26.65625 C 345.26752,299.48993 299.93653,359.92224 224.5,358.84375 149.06347,357.76525 103.91041,303.55138 89.40625,232.4375 z"
         transform="translate(557.85712,490.21933)"
         id="path3073"
         style="fill:#ffffff;fill-opacity:1;stroke:#ffffff;stroke-width:3;stroke-linecap:butt;stroke-linejoin:round;stroke-miterlimit:4;stroke-opacity:1;stroke-dasharray:none" />
      <path
         d="m 225.71429,152.5 c 0,0 -5.14717,-25.03448 21.07142,-47.32143 26.2186,-22.286947 8.57143,-56.607142 8.57143,-56.607142 0,0 5.11042,23.500705 -20.89285,46.964285 -26.00327,23.463577 -8.75,56.964287 -8.75,56.964287 z"
         transform="translate(557.85712,490.21933)"
         id="path3087"
         style="fill:#ffffff;fill-opacity:1;stroke:#ffffff;stroke-width:3;stroke-linecap:butt;stroke-linejoin:round;stroke-miterlimit:4;stroke-opacity:1;stroke-dasharray:none" />
      <path
         d="m 226.78571,51.428571 c 12.6877,16.21789 4.82143,36.607143 4.82143,36.607143 0,0 17.93173,-23.626353 4.82143,-41.428572 -13.1103,-17.802219 -4.46428,-34.821429 -4.46428,-34.821429 0,0 -17.86628,23.424968 -5.17858,39.642858 z"
         transform="translate(557.85712,490.21933)"
         id="path3089"
         style="fill:#ffffff;fill-opacity:1;stroke:#ffffff;stroke-width:3;stroke-linecap:butt;stroke-linejoin:round;stroke-miterlimit:4;stroke-opacity:1;stroke-dasharray:none" />
    </g>
  </g>
</svg>
